<svg xmlns="http://www.w3.org/2000/svg" width="95" height="30" viewBox="0 0 95 30" fill="none" class="logo logo-amazon">
<path fill-rule="evenodd" clip-rule="evenodd" d="M47.1918 10.0778L47.1919 10.2338V10.2338C47.1931 11.3098 47.1942 12.2232 46.6439 13.193C46.1785 14.0193 45.437 14.5275 44.6173 14.5275C43.4927 14.5275 42.8337 13.6681 42.8337 12.3997C42.8337 9.89601 45.0704 9.44154 47.1918 9.44154V10.0778ZM50.1452 17.2377C49.9516 17.4113 49.6715 17.4237 49.4532 17.308C48.6259 16.6188 48.3744 16.2438 47.9902 15.6712C47.923 15.571 47.8517 15.4647 47.7726 15.3496C46.1661 16.994 45.0251 17.4856 42.9449 17.4856C40.4775 17.4856 38.562 15.9611 38.562 12.9079C38.562 10.524 39.8472 8.90031 41.6844 8.10706C43.0175 7.51817 44.7937 7.3359 46.3331 7.17792L46.3333 7.1779C46.6299 7.14747 46.9176 7.11794 47.1918 7.08657V6.70647C47.1918 6.63538 47.1923 6.56296 47.1929 6.48959C47.1979 5.84229 47.2034 5.12052 46.8334 4.57873C46.4792 4.0375 45.7954 3.81439 45.1898 3.81439C44.0735 3.81439 43.0808 4.38868 42.8378 5.57856C42.7883 5.84298 42.5947 6.10326 42.327 6.11566L39.4889 5.80992C39.2499 5.75622 38.9822 5.56203 39.0522 5.19433C39.7031 1.74037 42.8172 0.699219 45.6018 0.699219C47.027 0.699219 48.8889 1.07932 50.0134 2.16178C51.3237 3.38857 51.3145 4.99245 51.3045 6.74874V6.74923C51.3036 6.90325 51.3027 7.05844 51.3027 7.21465V11.7924C51.3027 13.0207 51.7559 13.6332 52.2341 14.2796C52.2915 14.3572 52.3493 14.4353 52.4067 14.5151C52.5921 14.7795 52.6333 15.0976 52.3943 15.2959C51.797 15.7958 50.7343 16.7254 50.1494 17.246L50.1452 17.2377ZM16.8208 17.2801H19.7496C20.0626 17.2801 20.3139 17.0363 20.3139 16.7347V8.74433L20.3137 8.55419C20.3108 6.83076 20.307 4.58801 22.3364 4.58801C24.2043 4.58801 24.1724 6.58343 24.1465 8.20817V8.20822V8.20826V8.20831V8.20835C24.1435 8.39296 24.1406 8.57277 24.1406 8.74433L24.1448 16.7347C24.1448 17.0239 24.3754 17.2594 24.672 17.2801H27.5966C27.9097 17.2801 28.161 17.0363 28.161 16.7347V8.74433C28.161 8.6776 28.1608 8.60834 28.1606 8.53697C28.1585 7.69365 28.1556 6.55728 28.4328 5.85639C28.7335 5.09619 29.475 4.62106 30.1835 4.62106C31.0321 4.62106 31.687 4.90614 31.9053 5.91836C32.0181 6.4039 32.0027 7.52651 31.9924 8.27784L31.9924 8.27817C31.9899 8.46012 31.9877 8.62029 31.9877 8.74433V16.7347C31.9877 17.0239 32.2225 17.2594 32.515 17.2801H35.4396C35.7527 17.2801 36.0039 17.0363 36.0039 16.7347L36.0081 7.2198C36.0081 6.98767 36.012 6.75085 36.0159 6.51172C36.0395 5.08667 36.0644 3.57945 35.2707 2.49332C34.451 1.35302 33.1081 0.844841 31.8806 0.844841C30.1547 0.844841 28.5441 1.73312 27.8356 3.63776C27.0117 1.73312 25.8666 0.844841 24.0335 0.844841C22.2293 0.844841 20.8906 1.73312 20.178 3.63776H20.1244V1.66702C20.1038 1.39434 19.8773 1.17536 19.593 1.16297H16.862C16.5489 1.16297 16.2977 1.4026 16.2977 1.7042V16.7802C16.3183 17.0487 16.5407 17.2594 16.8208 17.2801ZM54.8657 3.82243V1.66577C54.8657 1.33938 55.1129 1.1204 55.4094 1.1204H65.036C65.345 1.1204 65.5921 1.34351 65.5921 1.66577V3.51256C65.588 3.82243 65.3285 4.22732 64.8671 4.8677L59.8788 12.0111C61.7324 11.9657 63.689 12.2425 65.3697 13.1927C65.7486 13.4076 65.8516 13.7216 65.8805 14.0314V16.3327C65.8805 16.6467 65.5344 17.0144 65.172 16.8244C62.2102 15.2668 58.2764 15.0974 55.0016 16.8409C54.668 17.0227 54.3179 16.6591 54.3179 16.3451V14.1595C54.3179 13.8083 54.322 13.2093 54.6721 12.6763L60.4513 4.36366H55.4218C55.1129 4.36366 54.8657 4.14469 54.8657 3.82243ZM54.7725 20.2261C56.5581 20.0136 60.4636 19.5489 61.1599 20.4445C61.8638 21.3488 60.379 25.0674 59.7152 26.7297L59.7152 26.7298L59.714 26.7327C59.5122 27.2367 59.9447 27.4392 60.3978 27.0591C63.3513 24.5843 64.1092 19.3992 63.5078 18.6514C62.9064 17.9077 57.7492 17.2674 54.6062 19.486C54.1202 19.8248 54.2025 20.2958 54.7422 20.2297L54.7725 20.2261ZM38.5414 29.3007C45.404 29.3007 53.3747 27.1316 58.8738 23.0662C59.7841 22.3886 59.0056 21.3805 58.0747 21.7772C51.9123 24.4007 45.2104 25.6649 39.1181 25.6649C30.0847 25.6649 21.3396 23.1819 14.2669 19.0545C13.649 18.6909 13.1877 19.3272 13.7026 19.794C20.2563 25.731 28.9189 29.3007 38.5414 29.3007ZM73.88 0.844841C78.2258 0.844841 80.5778 4.58801 80.5778 9.34754C80.5778 13.9459 77.9786 17.5941 73.88 17.5941C69.6125 17.5941 67.2893 13.8509 67.2893 9.18641C67.2893 4.49298 69.6413 0.844841 73.88 0.844841ZM73.9047 3.92284C71.7462 3.92284 71.6103 6.87275 71.6103 8.71128L71.6103 8.77896C71.61 10.6484 71.6092 14.4872 73.88 14.4872C76.1497 14.4872 76.2568 11.3141 76.2568 9.38059C76.2568 8.10808 76.2032 6.58767 75.8201 5.38126C75.4906 4.33186 74.8357 3.92284 73.9047 3.92284ZM83.2966 17.2801H86.2129C86.526 17.2801 86.7814 17.0363 86.7855 16.7347V8.61626C86.7855 7.5999 86.8391 6.6827 87.251 5.76136C87.5764 5.03422 88.2314 4.55496 88.944 4.55496C90.8107 4.55496 90.7931 6.61027 90.7793 8.22304C90.7781 8.35768 90.777 8.48924 90.777 8.61626V16.805C90.8059 17.0611 91.0283 17.2594 91.296 17.2801H94.233C94.5214 17.2801 94.7644 17.0694 94.7974 16.805V7.31482C94.7974 5.85639 94.7974 3.82781 94.0312 2.6214C93.2074 1.31997 91.9263 0.844841 90.6123 0.844841C88.5897 0.844841 87.4405 1.82815 86.6208 3.88978H86.5672V1.58439C86.5095 1.34889 86.2995 1.17536 86.0441 1.16297H83.3295C83.0329 1.16297 82.7899 1.37781 82.7652 1.65462L82.7693 16.7347C82.7693 17.0239 83.0041 17.2594 83.2966 17.2801ZM8.79672 10.2339C8.79666 10.1823 8.7966 10.1303 8.7966 10.0779V9.44168C6.67933 9.44168 4.4426 9.89615 4.4426 12.3999C4.4426 13.6682 5.09756 14.5276 6.2221 14.5276C7.04594 14.5276 7.78328 14.0194 8.24875 13.1931C8.79904 12.2233 8.79797 11.3099 8.79672 10.2339ZM11.058 17.3081C11.2764 17.4238 11.5565 17.4114 11.7501 17.2379L11.7583 17.2461C12.3432 16.7256 13.406 15.796 14.0033 15.2961C14.2422 15.0977 14.201 14.7796 14.0115 14.5152C13.9541 14.4355 13.8963 14.3574 13.8389 14.2798C13.3607 13.6333 12.9076 13.0208 12.9076 11.7925V7.21479C12.9076 7.05841 12.9085 6.90305 12.9093 6.74887C12.9193 4.99259 12.9285 3.38871 11.6183 2.16192C10.4937 1.07946 8.63183 0.699359 7.20659 0.699359C4.42201 0.699359 1.31201 1.74051 0.657055 5.19447C0.591147 5.56217 0.854777 5.75636 1.09369 5.81006L3.93594 6.1158C4.19957 6.1034 4.39317 5.84312 4.4426 5.5787C4.68564 4.38882 5.68249 3.81453 6.79879 3.81453C7.40019 3.81453 8.08398 4.03764 8.44235 4.57887C8.8083 5.12017 8.80274 5.84114 8.79774 6.48799C8.79717 6.56196 8.7966 6.63496 8.7966 6.70661V7.08671C8.52241 7.11808 8.23456 7.14762 7.93792 7.17806C6.39851 7.33604 4.62235 7.51831 3.28923 8.1072C1.45618 8.90045 0.16687 10.5241 0.16687 12.908C0.16687 15.9612 2.08642 17.4858 4.5497 17.4858C6.63402 17.4858 7.77092 16.9941 9.37741 15.3498C9.46217 15.4721 9.53785 15.5844 9.60905 15.6901C9.9877 16.2523 10.2398 16.6265 11.058 17.3081Z" fill="#3D3D4E"></path>
</svg>