<svg xmlns="http://www.w3.org/2000/svg" width="115" height="25" viewBox="0 0 115 25" fill="none" class="logo logo-asana">
<path fill-rule="evenodd" clip-rule="evenodd" d="M12.5643 11.8212C9.5814 11.8212 7.16333 9.38818 7.16333 6.38686C7.16333 3.38626 9.5814 0.952759 12.5643 0.952759C15.547 0.952759 17.9651 3.38626 17.9651 6.38686C17.9651 9.38818 15.547 11.8212 12.5643 11.8212ZM19.5804 24.0471C16.5973 24.0471 14.1794 21.6143 14.1794 18.6135C14.1794 15.6122 16.5973 13.1794 19.5804 13.1794C22.5634 13.1794 24.9812 15.6122 24.9812 18.6135C24.9812 21.6143 22.5634 24.0471 19.5804 24.0471ZM5.54799 24.0471C2.56528 24.0471 0.147217 21.6143 0.147217 18.6135C0.147217 15.6122 2.56528 13.1799 5.54799 13.1799C8.53117 13.1799 10.9492 15.6122 10.9492 18.6135C10.9492 21.6143 8.53117 24.0471 5.54799 24.0471ZM33.2711 12.7424C33.2711 15.6009 35.5243 17.9178 38.3038 17.9178C41.0834 17.9178 43.3364 15.6009 43.3364 12.7424C43.3364 9.88458 41.0834 7.56746 38.3038 7.56746C35.5243 7.56746 33.2711 9.88458 33.2711 12.7424ZM45.1484 20.3791C44.0536 20.3791 43.4217 19.3681 43.3523 18.5741L43.352 18.5721C42.3141 19.9539 40.2187 20.7045 38.2961 20.7045V20.704C33.9256 20.704 30.3828 17.1395 30.3828 12.7424C30.3828 8.34549 33.9256 4.78119 38.2961 4.78119C40.2187 4.78119 42.136 5.40648 43.3523 6.91356V5.76288H43.3547C43.368 5.52431 43.5641 5.33301 43.8041 5.33301H45.7889C46.0289 5.33301 46.2251 5.52431 46.2379 5.76288H46.2408V19.9248C46.2408 20.1745 46.0371 20.3791 45.7889 20.3791H45.1484ZM65.6077 12.7424C65.6077 15.6009 67.8612 17.9178 70.6405 17.9178C73.42 17.9178 75.673 15.6009 75.673 12.7424C75.673 9.88457 73.42 7.56744 70.6405 7.56744C67.8612 7.56744 65.6077 9.88457 65.6077 12.7424ZM77.485 20.3791C76.3902 20.3791 75.7583 19.3681 75.6889 18.5741L75.6887 18.5721C74.651 19.9539 72.5553 20.7045 70.6327 20.7045V20.704C66.2624 20.704 62.7197 17.1395 62.7197 12.7424C62.7197 8.34548 66.2624 4.78118 70.6327 4.78118C72.5553 4.78118 74.4726 5.40646 75.6889 6.91355V5.76287H75.6913C75.7046 5.5243 75.9007 5.333 76.1408 5.333H78.1258C78.3653 5.333 78.5617 5.5243 78.5747 5.76287H78.5774V19.9248C78.5774 20.1745 78.374 20.3791 78.1258 20.3791H77.485ZM106.79 17.9178C104.01 17.9178 101.757 15.6009 101.757 12.7424C101.757 9.88457 104.01 7.56744 106.79 7.56744C109.569 7.56744 111.822 9.88457 111.822 12.7424C111.822 15.6009 109.569 17.9178 106.79 17.9178ZM111.838 18.5741C111.908 19.3681 112.539 20.3791 113.634 20.3791H114.275C114.523 20.3791 114.727 20.1745 114.727 19.9248V5.76287H114.724C114.711 5.5243 114.515 5.333 114.275 5.333H112.29C112.05 5.333 111.854 5.5243 111.841 5.76287H111.838V6.91355C110.622 5.40646 108.705 4.78118 106.782 4.78118C102.412 4.78118 98.8687 8.34548 98.8687 12.7424C98.8687 17.1395 102.412 20.704 106.782 20.704V20.7045C108.705 20.7045 110.8 19.9539 111.838 18.5721L111.838 18.5741ZM96.3592 11.7338L96.3601 19.0619L96.3606 19.0621V19.9609V19.9859H96.358L96.3577 19.9871C96.3527 20.0758 96.3228 20.1578 96.2739 20.2259L96.2702 20.23C96.2548 20.2509 96.2382 20.2705 96.2194 20.2887C96.2168 20.2913 96.214 20.2934 96.2112 20.2956L96.2064 20.2994C96.19 20.3142 96.1734 20.3287 96.1548 20.3408C96.1495 20.3444 96.1438 20.3472 96.1381 20.35C96.1342 20.3519 96.1304 20.3537 96.1266 20.3559L96.1216 20.3588C96.1081 20.3668 96.0947 20.3748 96.0803 20.3808C96.0688 20.3855 96.0567 20.389 96.0446 20.3924L96.0319 20.3961C96.0275 20.3973 96.0232 20.3987 96.0189 20.4001C96.0149 20.4014 96.0109 20.4028 96.0068 20.4039C96.0038 20.4047 96.0008 20.4055 95.9977 20.406C95.969 20.4119 95.9394 20.4155 95.9088 20.4155H95.2675H93.924C93.684 20.4155 93.4878 20.224 93.4745 19.9859H93.4721V19.9609V18.6296C93.4721 18.6262 93.4719 18.6229 93.4717 18.6198L93.4716 18.6195V18.6194L93.4716 18.6192C93.4714 18.6162 93.4712 18.6133 93.4712 18.6104L93.4707 18.6126L93.4688 11.62C93.4688 9.4016 91.6809 7.60284 89.4756 7.60284C87.2701 7.60284 85.4822 9.4016 85.4822 11.62V18.826V19.0621V19.9609V19.9859H85.4798C85.4747 20.0751 85.4446 20.1578 85.395 20.2264L85.3947 20.2269C85.3788 20.2489 85.3607 20.2698 85.341 20.2892C85.3397 20.2905 85.3382 20.2916 85.3366 20.2928C85.335 20.294 85.3333 20.2952 85.3318 20.2967C85.3142 20.3125 85.2962 20.328 85.2764 20.3408C85.2722 20.3436 85.2676 20.346 85.2631 20.3483L85.263 20.3484C85.2593 20.3503 85.2556 20.3522 85.2521 20.3544L85.2423 20.36L85.2422 20.36L85.2421 20.36C85.2291 20.3675 85.216 20.375 85.2019 20.3808C85.1923 20.3848 85.182 20.3878 85.1717 20.3908L85.1578 20.3949L85.1445 20.3991C85.1363 20.4018 85.1281 20.4045 85.1195 20.406C85.0908 20.4119 85.061 20.4155 85.0306 20.4155H84.39H83.0458C82.8058 20.4155 82.6094 20.224 82.5966 19.9859H82.594V19.9609V18.6124V18.6104V5.82275C82.594 5.57303 82.7971 5.36816 83.0456 5.36816H83.6883C84.9491 5.36816 85.3559 6.17819 85.4793 6.9487C85.8622 5.95344 87.6665 4.81609 89.6383 4.81609C93.769 4.81609 96.3594 7.60284 96.3594 11.7338H96.3592ZM50.9821 16.5455C52.3071 17.4692 53.7535 17.9175 55.1435 17.9175C56.4675 17.9175 57.8361 17.227 57.8361 16.0249C57.8361 14.8078 56.1203 14.3701 54.4739 13.9501C53.9495 13.8164 53.4321 13.6844 52.9794 13.5296C51.105 12.8888 49.4907 11.5643 49.4907 9.41905C49.4907 6.13649 52.3977 4.78069 55.1112 4.78069C56.8304 4.78069 58.6041 5.35118 59.7541 6.16801C60.1503 6.46986 59.909 6.81681 59.909 6.81681L58.8111 8.39396C58.688 8.57168 58.472 8.7254 58.1624 8.53289C58.1411 8.51968 58.1162 8.50374 58.0876 8.48549L58.0871 8.48515C57.6999 8.23743 56.6522 7.5672 55.1112 7.5672C53.4556 7.5672 52.4584 8.3365 52.4584 9.28983C52.4584 10.433 53.7542 10.7925 55.2727 11.1822C57.918 11.8996 60.8038 12.762 60.8038 16.0249C60.8038 18.9171 58.1151 20.7045 55.1435 20.7045C52.891 20.7045 50.9739 20.0586 49.3658 18.8713C49.0306 18.5341 49.2646 18.2208 49.2646 18.2208L50.357 16.6514C50.5792 16.3581 50.8595 16.4604 50.9821 16.5455Z" fill="#3D3D4E"></path>
</svg>