<svg xmlns="http://www.w3.org/2000/svg" width="147" height="17" viewBox="0 0 147 17" fill="none" class="logo logo-facebook">
<path fill-rule="evenodd" clip-rule="evenodd" d="M33.5485 8.63345C33.5485 3.8089 36.7084 0.429718 41.2165 0.429718H41.5478C44.3764 0.429718 46.5641 1.87472 47.7242 3.96453C47.8015 4.09802 47.7794 4.20912 47.6468 4.27592L45.7024 5.24288C45.5697 5.30957 45.4038 5.30957 45.3155 5.14292C44.4979 3.72007 43.2715 2.96416 41.4595 2.96416H41.128C38.2885 2.96416 36.3328 5.23188 36.3328 8.52235C36.3328 11.8238 38.2553 14.0359 41.128 14.0359H41.4595C43.3158 14.0359 44.3984 13.4022 45.2272 12.4351C45.3376 12.3128 45.4593 12.2906 45.5918 12.3573L47.5916 13.3355C47.669 13.3799 47.7021 13.4355 47.7021 13.4911C47.7021 13.5467 47.6799 13.5912 47.6359 13.6578C46.4094 15.4587 44.1997 16.5703 41.5038 16.5703H41.1723C36.5871 16.5703 33.5485 13.4022 33.5485 8.63345ZM11.7832 2.98643V0.941039C11.7832 0.807673 11.6948 0.718722 11.5623 0.718722H0.425012C0.292453 0.718722 0.204163 0.807673 0.204163 0.941039V16.059C0.204163 16.1925 0.292453 16.2813 0.425012 16.2813H2.61272C2.7454 16.2813 2.83369 16.1925 2.83369 16.059V9.8784H10.0376C10.1701 9.8784 10.2586 9.78957 10.2586 9.6562V7.61068C10.2586 7.47732 10.1701 7.38849 10.0376 7.38849H2.83369V3.20875H11.5623C11.6948 3.20875 11.7832 3.1198 11.7832 2.98643ZM22.3455 3.16422C23.2627 5.20961 24.1576 7.45505 24.9641 9.70049H19.1966C20.0032 7.45505 20.9092 5.20961 21.8263 3.16422H22.3455ZM27.185 16.2813H29.5936C29.7483 16.2813 29.8367 16.1925 29.7925 16.0367C28.3893 11.0791 26.3011 5.5987 24.1355 1.00772C24.036 0.796541 23.9144 0.718722 23.7045 0.718722H20.5668C20.3569 0.718722 20.2352 0.796541 20.1358 1.00772C17.9923 5.60971 15.8709 11.0791 14.4788 16.0367C14.4345 16.1925 14.5231 16.2813 14.6778 16.2813H16.9979C17.1305 16.2813 17.219 16.2145 17.2521 16.0811C17.5615 14.8028 17.9482 13.4577 18.39 12.1016H25.7818C26.2238 13.4577 26.6103 14.8028 26.9309 16.0811C26.964 16.2145 27.0524 16.2813 27.185 16.2813ZM65.3245 16.059V14.0136C65.3245 13.8802 65.236 13.7913 65.1034 13.7913H55.9108V9.72276H63.2251C63.3577 9.72276 63.4462 9.63381 63.4462 9.50044V7.47732C63.4462 7.34395 63.3577 7.25488 63.2251 7.25488H55.9108V3.20875H64.9046C65.0373 3.20875 65.1256 3.1198 65.1256 2.98643V0.941039C65.1256 0.807673 65.0373 0.718722 64.9046 0.718722H53.5021C53.3695 0.718722 53.2813 0.807673 53.2813 0.941039V16.059C53.2813 16.1925 53.3695 16.2813 53.5021 16.2813H65.1034C65.236 16.2813 65.3245 16.1925 65.3245 16.059ZM82.605 11.7792C82.605 10.3342 81.6547 9.67822 79.5665 9.67822H74.3624V13.858H79.5665C81.6879 13.858 82.605 13.2354 82.605 11.7792ZM78.8262 3.14207H74.3624V7.32168H78.8262C80.826 7.32168 81.7431 6.66574 81.7431 5.23187C81.7431 3.79776 80.826 3.14207 78.8262 3.14207ZM85.3009 12.0127C85.3009 14.7361 83.2236 16.2813 79.5553 16.2813H71.9538C71.8212 16.2813 71.7329 16.1925 71.7329 16.059V0.941039C71.7329 0.807673 71.8212 0.718722 71.9538 0.718722H78.8815C82.4502 0.718722 84.3947 2.14158 84.3947 4.7427C84.3947 6.45456 83.533 7.5774 81.7873 8.09973C84.2401 8.62219 85.3009 10.1007 85.3009 12.0127ZM103.388 8.50007C103.388 11.846 101.387 14.0359 98.2169 14.0359H97.8849C94.7142 14.0359 92.7143 11.846 92.7143 8.50007C92.7143 5.15393 94.7142 2.96416 97.8849 2.96416H98.2169C101.387 2.96416 103.388 5.15393 103.388 8.50007ZM97.8849 0.429718C93.0239 0.429718 89.9301 3.80889 89.9301 8.50007C89.9301 13.191 93.0239 16.5703 97.8849 16.5703H98.2169C103.078 16.5703 106.172 13.191 106.172 8.50007C106.172 3.80889 103.078 0.429718 98.2169 0.429718H97.8849ZM118.942 14.0359C122.114 14.0359 124.113 11.846 124.113 8.50007C124.113 5.15393 122.114 2.96416 118.942 2.96416H118.612C115.44 2.96416 113.441 5.15393 113.441 8.50007C113.441 11.846 115.44 14.0359 118.612 14.0359H118.942ZM110.656 8.50007C110.656 3.80889 113.749 0.429718 118.612 0.429718H118.942C123.804 0.429718 126.898 3.80889 126.898 8.50007C126.898 13.191 123.804 16.5703 118.942 16.5703H118.612C113.749 16.5703 110.656 13.191 110.656 8.50007ZM143.106 16.2813H145.956C146.134 16.2813 146.2 16.1478 146.078 16.0033C143.714 13.202 141.117 10.6008 138.378 8.2665C140.553 6.39901 142.908 3.9868 145.283 1.041C145.337 0.974318 145.361 0.918768 145.361 0.874354C145.361 0.785402 145.294 0.718722 145.161 0.718722H142.465C142.332 0.718722 142.244 0.74087 142.134 0.885371C140.509 3.0087 138.521 5.12065 136.366 7.07722H135.062V0.941039C135.062 0.807673 134.974 0.718722 134.841 0.718722H132.653C132.521 0.718722 132.433 0.807673 132.433 0.941039V16.059C132.433 16.1925 132.521 16.2813 132.653 16.2813H134.841C134.974 16.2813 135.062 16.1925 135.062 16.059V9.63381H136.344C138.356 11.3681 140.72 13.7246 142.719 16.0923C142.841 16.2368 142.919 16.2813 143.106 16.2813Z" fill="#3D3D4E"></path>
</svg>