<svg xmlns="http://www.w3.org/2000/svg" width="153" height="35" viewBox="0 0 153 35" fill="none" class="logo logo-fantasy">
<path fill-rule="evenodd" clip-rule="evenodd" d="M30.1451 0.599082C33.2875 1.83784 34.6972 4.50874 34.6972 6.60192C34.6972 7.69296 34.1523 8.65438 33.4969 9.811C32.5075 11.5569 31.2661 13.7475 31.2661 17.5C31.2661 21.2525 32.5076 23.4431 33.4969 25.189C34.1524 26.3455 34.6972 27.3069 34.6972 28.3978C34.6972 30.4912 33.2875 33.1621 30.1451 34.4009C28.1192 35.1995 26.709 34.3988 24.9377 33.393C23.1507 32.3783 20.9961 31.1549 17.471 31.1549C13.946 31.1549 11.7915 32.3782 10.0044 33.3929C8.23313 34.3986 6.82282 35.1994 4.79676 34.4009C1.65472 33.1621 0.244751 30.4912 0.244751 28.3978C0.244751 27.3067 0.789622 26.3453 1.44511 25.1888C2.43456 23.443 3.67605 21.2524 3.67605 17.5C3.67605 13.7475 2.43456 11.5569 1.44511 9.811C0.789621 8.65438 0.244751 7.69296 0.244751 6.60192C0.244751 4.50874 1.65498 1.83784 4.79676 0.599082C6.82284 -0.19957 8.23309 0.601145 10.0044 1.60684C11.7914 2.62148 13.9459 3.84475 17.471 3.84475C20.9959 3.84475 23.1503 2.6215 24.9374 1.60687C26.7087 0.601163 28.119 -0.199579 30.1451 0.599082ZM57.9628 14.5439L58.5704 12.9548H52.3539C51.7093 12.9548 51.0911 13.2108 50.6353 13.6666C50.1794 14.1224 49.9234 14.7407 49.9234 15.3853V22.3029H51.5126V18.6571H55.579L56.1866 17.0679H51.5126V15.6657C51.5126 15.5184 51.5416 15.3725 51.5979 15.2364C51.6543 15.1003 51.7369 14.9767 51.8411 14.8725C51.9453 14.7683 52.0689 14.6857 52.205 14.6293C52.3411 14.573 52.487 14.5439 52.6343 14.5439H57.9628ZM68.2924 12.9548L64.7402 22.3029H66.3293L69.087 14.5439L71.8447 22.3029H73.4339L69.8816 12.9548H68.2924ZM115.921 12.9548L112.042 22.3029H112.977L116.389 13.8896L119.801 22.3029H120.735L116.856 12.9548H115.921ZM81.8005 12.9548V22.3029H82.969V14.4037L87.7833 22.3029H89.5594V12.9548H88.3909V20.8539L83.5766 12.9548H81.8005ZM106.059 12.9548H97.3651L97.7623 13.9831H101.151V22.3029H102.179V13.9831H105.661L106.059 12.9548ZM136.188 13.6091L136.44 12.9548H130.621C129.188 12.9548 128.027 14.1161 128.027 15.549C128.027 16.9817 129.188 17.956 130.621 17.956H134.22C135.188 17.956 135.973 18.9277 135.973 19.8956C135.973 20.1258 135.928 20.3538 135.84 20.5665C135.751 20.7791 135.622 20.9724 135.46 21.1352C135.297 21.298 135.104 21.4271 134.891 21.5152C134.678 21.6032 134.45 21.6486 134.22 21.6485H128.462L128.223 22.3029H134.22C134.859 22.3028 135.471 22.0492 135.922 21.5977C136.374 21.1463 136.627 20.534 136.627 19.8956C136.627 18.5663 135.55 17.3016 134.22 17.3016H130.621C129.55 17.3016 128.681 16.62 128.681 15.5487C128.681 15.0343 128.886 14.541 129.249 14.1772C129.613 13.8135 130.107 13.6091 130.621 13.6091H136.188ZM147.798 17.769L144.012 12.9548H143.405L147.565 18.1897V22.3029H148.032V18.1897L152.192 12.9548H151.584L147.798 17.769Z" fill="#3D3D4E"></path>
</svg>