<svg xmlns="http://www.w3.org/2000/svg" width="145" height="39" viewBox="0 0 145 39" fill="none" class="logo logo-mailchimp">
<path fill-rule="evenodd" clip-rule="evenodd" d="M35.1661 24.6591C35.1661 24.5626 35.0702 24.2247 34.9023 23.6938L34.5425 22.8975C35.1661 22.0046 35.1661 21.1359 35.0702 20.7015C34.9742 20.1706 34.7104 19.6397 34.2786 19.1088C33.8469 18.5779 32.7915 18.047 31.4723 17.685L30.7767 17.5161C30.7767 17.5161 30.7767 15.8269 30.6807 15.127C30.6807 14.5961 30.5848 13.7998 30.3209 13.0034C30.0571 11.9416 29.5294 10.9764 28.8338 10.3489C30.5848 8.49078 31.7361 6.36717 31.7361 4.60555C31.7361 1.25123 27.6105 0.189425 22.4296 2.31303L21.3742 2.7474C21.3742 2.7474 19.4553 0.816853 19.3594 0.816853C13.6747 -4.2991 -4.48272 16.0923 1.2979 21.0393L2.52119 22.1011C2.1614 22.994 2.08944 23.9593 2.1614 25.0211C2.3293 26.3483 3.04888 27.6756 4.08028 28.7374C5.13566 29.7027 6.52685 30.3301 7.94202 30.3301C10.2207 35.6391 15.4017 38.8004 21.4461 38.9934C27.9463 39.1623 33.4631 36.0735 35.7418 30.5955C35.9097 30.2336 36.5333 28.4719 36.5333 26.8792C36.6772 25.2624 35.7897 24.6591 35.1661 24.6591ZM8.31467 28.829L8.31464 28.829C8.16894 28.8511 8.00239 28.8764 7.87006 28.8098C5.95118 28.7133 3.74447 26.9516 3.57657 24.828C3.40867 22.5355 4.53601 20.7739 6.64678 20.3154C6.91062 20.2188 7.17447 20.2188 7.53426 20.2188C8.68559 20.3154 10.4366 21.1841 10.8683 23.7421C11.2041 26.1553 10.7004 28.4478 8.4937 28.8098C8.44159 28.8098 8.38024 28.8191 8.31467 28.829ZM6.31098 18.9157C4.99175 19.1812 3.8644 19.881 3.14483 20.9428C2.71308 20.5808 1.92154 19.881 1.8256 19.6156C0.674268 17.492 3.04888 13.2689 4.7279 10.9522C8.75755 5.13645 15.1618 0.720326 18.0641 1.49255C18.5918 1.66147 20.1749 3.51962 20.1749 3.51962C20.1749 3.51962 17.2006 5.20885 14.4662 7.50137C10.7724 10.2524 7.96601 14.4031 6.31098 18.9157ZM27.0109 27.9169L27.1068 27.8204C27.1068 27.7239 27.0109 27.7239 27.0109 27.7239C27.0109 27.7239 23.9407 28.1582 21.0384 27.0964C21.337 26.2152 21.9329 26.3146 22.8673 26.4705L22.8674 26.4705C23.0589 26.5025 23.2646 26.5368 23.4849 26.5655C25.7636 26.7344 27.8744 26.3966 29.3615 25.9381C30.6807 25.5761 32.4317 24.7798 33.7509 23.7421C34.1827 24.7074 34.3746 25.8657 34.3746 25.8657C34.3746 25.8657 34.7344 25.7692 34.9982 25.9622C35.2621 26.1311 35.43 26.4931 35.358 27.386C35.0942 29.1476 34.3026 30.4749 33.1753 31.8021C32.4797 32.5985 31.4963 33.2983 30.4649 33.8292C29.9372 34.0947 29.3135 34.3601 28.7139 34.529C23.9647 36.0252 19.2394 34.4325 17.7523 30.8127C17.7278 30.7449 17.6985 30.677 17.6686 30.6075C17.5815 30.4052 17.4884 30.1893 17.4884 29.9198C16.8648 27.5308 17.3925 24.7074 19.1675 22.9457C19.2634 22.8492 19.3354 22.6803 19.3354 22.5114C19.3354 22.3654 19.2637 22.2735 19.1979 22.189C19.1875 22.1757 19.1773 22.1625 19.1675 22.1494C19.0458 21.9753 18.8686 21.7782 18.6652 21.5521L18.6652 21.5521C17.8257 20.6188 16.5412 19.1909 16.8888 16.8404C17.1526 14.7168 18.9996 13.3171 20.6546 13.3895H21.0863C21.4621 13.3895 21.8449 13.4388 22.1969 13.4842L22.1969 13.4842C22.4965 13.5228 22.7737 13.5585 23.0052 13.5585C23.9647 13.5585 24.9241 13.4619 25.9795 12.5932C26.0391 12.5492 26.0961 12.5052 26.1521 12.4619L26.1522 12.4619C26.434 12.2443 26.6906 12.0463 27.1308 11.9658C27.1587 11.9658 27.1846 11.9576 27.2138 11.9484C27.2849 11.9259 27.3755 11.8973 27.5626 11.9658C27.8264 11.9658 28.0903 12.0623 28.2582 12.2312C29.102 12.8278 29.2085 14.0352 29.2994 15.0652L29.3135 15.2236C29.3135 15.5801 29.3445 16.1861 29.3713 16.7093C29.3916 17.1067 29.4095 17.4564 29.4095 17.6126C29.5054 18.5055 29.6733 18.6744 30.201 18.8433C30.4649 18.9399 30.7287 19.0123 31.0885 19.1088C32.2398 19.4708 32.9354 19.7362 33.3672 20.1706C33.631 20.436 33.727 20.7015 33.7989 20.9669C33.9668 21.9322 33.0074 23.1629 30.6328 24.3213C27.9943 25.552 24.9241 25.8174 22.7414 25.552L21.9498 25.4555C20.1989 25.19 19.2394 27.4825 20.2708 28.9787C20.9664 29.944 22.8133 30.6679 24.5643 30.6679C28.7858 30.6679 32.024 28.9063 33.1753 27.3136L33.2712 27.1447C33.3672 27.0482 33.2712 26.9758 33.1753 27.0482C32.2158 27.748 27.8264 30.4025 23.1731 29.6061C23.1731 29.6061 22.6454 29.5096 22.1177 29.3407C21.686 29.1718 20.8945 28.8098 20.7026 27.9169C24.6363 29.0752 27.0109 27.9169 27.0109 27.9169ZM13.8426 10.9764C15.2577 9.28712 17.0807 7.79095 18.6638 6.9946C18.7597 6.9946 18.7597 6.99461 18.7597 7.09113C18.7255 7.18574 18.67 7.3018 18.6094 7.42839L18.6094 7.42843C18.5 7.65703 18.3743 7.91998 18.328 8.15293C18.328 8.24946 18.4239 8.24946 18.4239 8.24946C19.3833 7.54963 21.1343 6.82568 22.6454 6.75328C22.7414 6.75328 22.7414 6.84981 22.7414 6.84981C22.5694 6.95995 22.4381 7.11112 22.2945 7.27656C22.2178 7.36487 22.1376 7.45726 22.0458 7.54964C22.0458 7.54964 22.0458 7.64616 22.1417 7.64616C23.1971 7.64616 24.6842 8.00814 25.6437 8.61144C25.7396 8.61144 25.6437 8.78036 25.5477 8.78036C24.0606 8.41838 21.686 8.15293 19.1435 8.78036C16.8648 9.31126 15.1858 10.2041 13.9625 11.0729C13.9465 11.0697 13.9313 11.0669 13.9172 11.0643L13.9171 11.0643C13.8259 11.0475 13.7803 11.0391 13.8426 10.9764ZM28.4261 18.3842H27.6346C27.3708 18.1188 27.1789 17.6844 27.1069 17.1535C26.939 16.2606 26.939 15.5608 27.4667 15.4643C27.9944 15.3919 28.2582 15.9952 28.4261 16.8881C28.594 17.4914 28.594 18.0223 28.4261 18.3842ZM23.6767 19.3494C23.6047 19.446 23.3409 19.3494 22.9811 19.1805C22.6213 19.0116 22.0936 18.8185 21.5659 18.8427C20.9756 18.8908 20.4278 19.0671 20.0776 19.1797C19.9014 19.2365 19.7752 19.277 19.719 19.277C19.647 19.277 19.5511 19.277 19.5511 19.1805C19.4552 18.9875 19.719 18.722 19.9828 18.5531C20.7744 17.9257 21.7338 17.8291 22.6213 18.1911C22.9571 18.36 23.4128 18.6255 23.5807 18.9875C23.6054 19.0371 23.6301 19.0788 23.6516 19.115C23.7134 19.2194 23.7479 19.2778 23.6767 19.3494ZM22.1898 19.6151C21.6621 19.7117 21.3983 19.8806 21.2304 20.0495C21.0625 20.2184 20.9665 20.315 20.9665 20.4115V20.508H21.0625C21.1584 20.508 21.4223 20.4115 21.4223 20.4115C22.1179 20.146 22.5736 20.146 23.0053 20.2426C23.1134 20.2426 23.1933 20.2588 23.2549 20.2713C23.3438 20.2893 23.3946 20.2996 23.4371 20.2426V20.0736C23.4131 19.8082 22.8854 19.5427 22.1898 19.6151ZM26.9386 21.0392C26.7467 21.3046 26.4109 21.377 26.0511 21.2081C25.6913 21.0392 25.4275 20.6772 25.6194 20.4117C25.8113 20.1463 26.1471 20.0739 26.5069 20.2428C26.8427 20.4117 27.0345 20.7737 26.9386 21.0392ZM28.2343 19.2782C27.9705 19.2782 27.7066 19.5437 27.7066 19.978C27.7066 20.34 27.8745 20.6778 28.2343 20.6778C28.4982 20.6778 28.762 20.4124 28.762 19.978C28.69 19.616 28.4982 19.2782 28.2343 19.2782ZM9.38075 26.156C9.4767 26.0595 9.54866 26.0595 9.6446 26.156C9.6446 26.1876 9.65228 26.2088 9.65928 26.2281C9.6737 26.268 9.68521 26.2999 9.62061 26.3974C9.62061 26.5663 9.26082 26.8317 8.82907 26.8317C8.39733 26.7593 7.86964 26.3974 7.77369 25.601C7.77369 25.1425 7.86964 24.7081 8.13348 24.4427C8.32537 23.9118 8.13348 23.3809 7.70173 23.1154C7.43789 22.9465 7.0781 22.85 6.81425 22.9465C6.55041 22.9465 6.28656 23.1154 6.11866 23.3809C5.95076 23.6463 5.85481 23.8394 5.85481 24.0083V24.1048C5.75887 24.3703 5.59097 24.4668 5.49502 24.4668C5.42306 24.4668 5.32712 24.3944 5.32712 24.2979C5.25516 23.96 5.32712 23.0672 5.95076 22.3673C6.31055 21.9088 6.9102 21.6434 7.53383 21.7399C8.15747 21.8364 8.58922 22.1743 8.94901 22.8017C9.40474 23.5981 9.04495 24.3944 8.7811 24.9253L8.68516 25.0942C8.58922 25.4562 8.6132 25.7217 8.68516 25.8906C8.75712 26.0595 8.94901 26.156 9.11691 26.156H9.38075ZM110.219 14.8625C111.623 14.8625 112.762 14.1062 112.762 13.1733C112.762 12.2403 111.623 11.484 110.219 11.484C108.815 11.484 107.677 12.2403 107.677 13.1733C107.677 14.1062 108.815 14.8625 110.219 14.8625ZM52.8206 17.3235C53.2763 16.4307 54.1398 14.9345 55.9867 14.9345C58.7931 14.9345 59.8485 16.8892 59.8964 19.9056V26.7832H55.8668V20.5089C55.8668 19.5437 55.6749 18.4819 54.7155 18.4819C53.828 18.4819 53.3962 19.978 53.3962 21.0398V26.8556H49.1747V20.5089C49.1747 19.1817 48.9828 18.4819 48.0234 18.4819C47.1359 18.4819 46.7041 19.8815 46.7041 21.0398V26.8556H42.5786V15.1999H45.6488C45.6488 15.1999 45.8167 16.0687 45.5528 17.227C45.3609 17.7579 45.193 18.2888 45.4569 18.2888C45.5782 18.2888 45.6119 18.2006 45.7208 17.9147C45.7626 17.8051 45.8155 17.6664 45.8886 17.4925C46.2484 16.6237 47.1359 14.9345 49.0548 14.9345C50.8777 14.9345 51.7652 16.0687 52.029 17.1305C52.0983 17.4589 52.1104 17.7134 52.1193 17.8992C52.1319 18.1638 52.1378 18.2888 52.2929 18.2888C52.4619 18.2888 52.5227 18.1105 52.6139 17.8428C52.665 17.6926 52.7258 17.5143 52.8206 17.3235ZM124.083 17.3235C124.539 16.4307 125.402 14.9345 127.249 14.9345C130.055 14.9345 131.111 16.8892 131.351 19.9056V26.7832H127.225V20.5089C127.225 19.5437 127.033 18.4819 126.074 18.4819C125.186 18.4819 124.755 19.978 124.755 21.0398V26.8556H120.533V20.5089C120.533 19.1817 120.341 18.4819 119.382 18.4819C118.494 18.4819 118.062 19.8815 118.062 21.0398V26.8556H113.841V15.1999H116.911C116.911 15.1999 117.079 16.0687 116.815 17.227C116.623 17.7579 116.455 18.2888 116.719 18.2888C116.841 18.2888 116.874 18.2006 116.983 17.9147C117.025 17.8051 117.078 17.6664 117.151 17.4925C117.511 16.6237 118.398 14.9345 120.317 14.9345C122.236 14.9345 122.932 16.0687 123.291 17.1305C123.361 17.4318 123.373 17.683 123.382 17.8736C123.394 18.1408 123.401 18.2888 123.555 18.2888C123.724 18.2888 123.785 18.1105 123.876 17.8428C123.927 17.6926 123.988 17.5143 124.083 17.3235ZM61.5035 16.0928C61.5035 16.0928 63.8062 14.9345 67.0443 14.9345C70.8101 14.9345 72.0333 17.4925 72.1293 21.0881V26.8315H68.9392C68.7713 26.2282 68.7713 25.5284 68.7713 24.6355C68.7713 24.5085 68.7767 24.3968 68.7815 24.3002C68.7966 23.9928 68.8041 23.8391 68.6034 23.8391C68.5057 23.8391 68.4648 23.9616 68.3958 24.1686C68.3462 24.3175 68.282 24.51 68.1716 24.732C67.8358 25.5284 66.7804 27.1211 64.4058 27.1211C62.7268 27.1211 60.8079 26.1558 60.8079 23.7667C60.8079 21.3053 62.5589 19.7126 65.9889 19.7126C67.476 19.7126 67.9078 19.8091 67.9078 19.8091C68.0037 19.0128 67.8358 18.1199 66.1568 18.1199C64.046 18.1199 61.5035 19.6161 61.5035 19.6161V16.0928ZM64.5018 23.4289C64.5018 24.0322 65.0294 24.3942 65.9889 24.1287C67.0443 23.8633 67.9078 22.536 67.9317 22.1982C67.9317 22.1982 67.4041 22.1016 66.7804 22.1016C65.4612 22.1016 64.5018 22.536 64.5018 23.4289ZM83.1868 11.6767H78.9653V26.8556H83.1868V11.6767ZM90.5505 19.0128C88.7996 19.0128 87.8401 19.978 87.8401 21.0398C87.8401 22.1016 88.5357 23.0669 90.6225 22.9704C92.2853 22.9704 93.544 22.2634 94.2031 21.8931L94.2033 21.893C94.3142 21.8307 94.4082 21.7779 94.4842 21.7397V25.6249C94.4842 25.6249 92.8292 27.1211 90.1907 27.1211C86.7847 27.1211 84.4101 24.9009 84.4101 20.8468C84.4101 16.7926 87.0246 14.9345 90.1907 14.9345C93.189 14.9345 94.4123 16.0928 94.4123 16.0928V20.1711C94.3856 20.1568 94.3522 20.1382 94.3124 20.1161L94.3122 20.116C93.8154 19.8399 92.3268 19.0128 90.5505 19.0128ZM99.4253 17.6614C99.5933 17.227 100.481 14.9345 102.927 14.9345C106.261 14.9345 106.693 17.6855 106.861 20.6779V26.8556H102.639V20.4124C102.639 19.1093 102.376 18.4819 101.488 18.4819C100.433 18.4819 100.073 20.0746 100.073 21.0398V26.8556H95.8514V11.6767H99.4493C99.4493 11.6767 99.6172 12.1111 99.6172 13.4383C99.6172 15.2147 99.2314 16.6233 99.039 17.3258L99.0389 17.3258L99.0386 17.3271L99.0377 17.3302C99.0215 17.3894 99.0067 17.4436 98.9936 17.4925C98.8977 17.7579 98.7298 18.2888 98.9936 18.2888C99.1615 18.2888 99.2574 18.0958 99.4253 17.6614ZM108.108 26.8556V15.1999C108.108 15.1999 108.804 15.5619 110.219 15.6343C111.634 15.6343 112.33 15.1999 112.33 15.1999V26.8556H108.108ZM135.836 17.4921C136.268 16.5269 137.251 14.9342 139.434 14.9342C142.24 14.9342 144.087 17.0578 144.111 21.0395C144.111 24.5628 142.624 27.1207 139.554 27.1207C138.163 27.1207 137.275 26.252 136.748 25.3591V30.0407H132.526V15.1996H135.596C135.596 15.1996 135.764 16.0684 135.5 17.2267C135.309 17.7576 135.141 18.2885 135.404 18.2885C135.526 18.2885 135.559 18.2002 135.668 17.9144C135.71 17.8047 135.763 17.6661 135.836 17.4921ZM136.628 21.3774C136.628 23.0666 137.347 24.2973 138.307 24.2973C139.53 24.2973 139.962 23.332 139.986 21.3774C139.986 19.5192 139.458 18.4574 138.307 18.4574C137.323 18.4574 136.628 19.6881 136.628 21.3774ZM73.449 26.8564V15.2008C73.449 15.2008 75.5358 15.5627 75.5358 15.6351C76.951 15.6351 77.6466 15.2008 77.6466 15.2008V26.8564H73.449ZM75.5352 14.8625C76.9394 14.8625 78.0777 14.1062 78.0777 13.1733C78.0777 12.2403 76.9394 11.484 75.5352 11.484C74.131 11.484 72.9927 12.2403 72.9927 13.1733C72.9927 14.1062 74.131 14.8625 75.5352 14.8625Z" fill="#3D3D4E"></path>
</svg>