<svg xmlns="http://www.w3.org/2000/svg" width="151" height="17" viewBox="0 0 151 17" fill="none" class="logo logo-starbucks">
<path fill-rule="evenodd" clip-rule="evenodd" d="M6.49248 16.6027C9.84868 16.5983 13.3262 15.3419 13.3353 11.3615C13.3514 7.76642 10.4456 6.78616 8.18746 6.26659C6.48384 5.88728 5.65912 5.69802 5.66619 4.97774C5.66619 4.02987 6.82118 3.95164 7.43148 3.95164C8.96663 3.95756 10.3957 4.61621 11.6269 5.40011L13.0152 1.85084C11.2102 1.03572 9.02828 0.39209 6.98102 0.39209C3.49876 0.39209 0.770909 2.161 0.766589 5.72054C0.753236 8.63922 2.85155 9.7641 5.17764 10.3694C5.38588 10.4236 5.58442 10.4729 5.77228 10.5196L5.77229 10.5196C7.02886 10.8318 7.8069 11.0251 7.80417 11.7483C7.79985 12.5856 7.01637 12.8349 6.24899 12.8321C4.55243 12.8349 2.94698 12.0628 1.95497 11.1565L0.2749 14.5979C2.07396 15.8306 4.27242 16.6027 6.49248 16.6027ZM25.2035 4.65526L25.1712 16.283L19.8385 16.283L19.875 4.65526L15.4172 4.65684L15.4302 0.705739L29.6687 0.71048L29.6585 4.6596L25.2035 4.65526ZM100.776 9.20733C100.764 14.0292 98.2044 16.6081 93.4249 16.6081C88.7323 16.6081 86.0983 13.9506 86.1085 9.25592L86.1364 0.713645L91.4028 0.713645L91.3898 8.9829C91.3808 11.2757 91.9711 12.2884 93.3927 12.284C94.8104 12.2884 95.4969 11.3729 95.5044 8.74821L95.5264 0.71246L100.801 0.713645L100.776 9.20733ZM41.1399 13.4275L42.0263 16.2829L47.334 16.2829L42.0483 0.705739L35.3127 0.707318L29.8834 16.2873L35.1894 16.2829L36.1375 13.4275L41.1399 13.4275ZM37.3054 9.59492L38.6305 4.25936L39.9571 9.59808L37.3054 9.59492ZM117.846 15.0819L116.259 11.0395C115.318 11.7823 114.367 12.4552 112.818 12.4509C110.728 12.4509 109.337 10.644 109.346 8.43971C109.348 6.20299 110.579 4.33531 112.757 4.33096C114.128 4.32504 115.324 5.04848 116.278 5.85016L117.858 1.89946C116.1 0.967787 114.344 0.405545 111.925 0.405545C107.442 0.398038 104.041 3.62806 104.026 8.39388C104.01 13.424 107.304 16.607 112.027 16.607C114.627 16.607 116.454 15.9764 117.846 15.0819ZM126.499 10.6159L129.814 16.2881L136.005 16.2924L130.545 8.39379L135.421 0.718388L129.646 0.718388L126.507 6.42022L126.525 0.714041L121.353 0.71246L121.305 16.2881L126.48 16.2968L126.499 10.6159ZM150.686 11.3688C150.674 15.3535 147.194 16.6071 143.838 16.6071C141.628 16.6071 139.421 15.8335 137.626 14.6083L139.3 11.1653C140.301 12.0701 141.908 12.8437 143.6 12.8437C144.363 12.8437 145.149 12.5972 145.149 11.7631C145.154 11.0348 144.386 10.8454 143.143 10.5392C142.947 10.4909 142.74 10.4397 142.521 10.383C140.206 9.77885 138.103 8.64963 138.113 5.72621C138.12 2.1639 140.849 0.404078 144.334 0.396571C146.37 0.404078 148.56 1.05048 150.369 1.86717L148.971 5.41763C147.744 4.62346 146.313 3.96362 144.78 3.95928C144.163 3.96362 143.02 4.03593 143.014 4.99091C143.01 5.71001 143.826 5.89453 145.534 6.27976C147.795 6.78945 150.693 7.77249 150.686 11.3688ZM58.9991 6.07594C58.9932 7.0977 58.3814 7.69115 57.3717 7.69115L55.5491 7.68641L55.5593 4.43426L57.4011 4.43426C58.3739 4.43703 59.0034 4.95976 58.9991 6.02735L58.9991 6.07594ZM61.3865 10.4668C63.1973 9.77259 64.1866 7.84446 64.1878 6.05382C64.2027 2.38048 61.8181 0.710745 58.4281 0.713906L50.4382 0.707979L50.3985 16.2836L55.5243 16.2836L55.5373 11.6656L56.8333 11.6656L59.4802 16.2836L65.0199 16.2836L61.3865 10.4668ZM75.5281 12.9087C76.5715 12.9131 77.2097 12.3757 77.207 11.4662L77.2144 11.4231C77.2097 10.4622 76.5598 9.9928 75.5575 9.9928L73.6603 9.9928L73.6513 12.9131L75.5281 12.9087ZM75.5324 4.09302L73.6764 4.09184L73.6674 6.86432L75.5033 6.85998C76.5276 6.8584 77.1469 6.35345 77.1469 5.48697L77.1512 5.44548C77.1512 4.53317 76.5099 4.08433 75.5324 4.09302ZM82.2448 4.86072C82.2389 6.75804 81.2893 7.89912 79.3654 8.33492C81.3274 8.4985 82.5425 9.86558 82.5397 11.8957C82.535 14.8353 80.582 16.2834 76.6713 16.2952L68.5726 16.2952L68.6091 0.715225L77.044 0.71246C80.3707 0.71246 82.2578 2.20637 82.2448 4.86072Z" fill="#3D3D4E"></path>
</svg>