<svg xmlns="http://www.w3.org/2000/svg" width="154" height="29" viewBox="0 0 154 29" fill="none" class="logo logo-walmartlabs">
<path fill-rule="evenodd" clip-rule="evenodd" d="M7.38746 1.24509L3.67833 15.6045L12.207 15.6046C12.3546 15.6046 12.4738 15.4802 12.4738 15.327C12.4738 15.1738 12.3541 15.0494 12.207 15.0494H4.37057L7.93882 1.24509H7.38746ZM7.61571 12.5937H16.5817V12.5939C16.8202 12.5939 16.956 12.874 16.8118 13.0689L5.16223 28.8117C5.08536 28.9157 4.92381 28.8355 4.95706 28.7091L7.57095 18.5725L3.48444 18.5724C1.28611 18.5724 -0.0532864 16.7911 0.508128 14.6141L4.26456 0.140503H10.8513L7.61571 12.5937ZM84.4978 15.1976C84.5605 15.0074 84.5771 14.7904 84.5771 14.58L84.5773 13.1549C82.5331 13.1438 80.7464 13.5781 80.7464 15.1475C80.7464 16.1736 81.4473 16.6585 82.3387 16.6585C83.3999 16.6585 84.248 15.9887 84.4978 15.1976ZM82.9394 6.97955C86.8128 6.97955 87.9605 9.25667 87.9605 11.845V15.908C87.9605 16.9627 88.0087 17.8387 88.1496 18.6604C85.4528 19.4164 84.9649 17.4411 84.9649 17.4411H84.8918C84.1533 18.3505 82.9152 18.9181 81.4447 18.9181C79.0409 18.9181 77.6617 17.25 77.6617 15.4696C77.6617 12.554 80.3711 11.1221 84.6597 11.1304V10.9663C84.6597 10.2754 84.3366 9.19812 82.3725 9.20229C81.1825 9.20229 79.9252 9.59932 79.1384 10.079L78.5105 7.99744C79.3707 7.5178 80.9506 6.97955 82.9394 6.97955ZM103.725 7.05038V9.95951H100.936V14.2513C100.936 15.64 101.302 16.3127 102.394 16.3127C102.906 16.3127 103.285 16.2517 103.608 16.1741L103.651 18.5865C103.211 18.7451 102.279 18.9179 101.333 18.9179C100.223 18.9179 99.295 18.5428 98.7278 17.9638C98.0812 17.3026 97.7762 16.2192 97.7762 14.6722V3.45398H100.936V7.05038H103.725ZM92.4136 9.39136H92.4988L92.4986 9.3911C93.0903 7.74633 94.4934 6.97929 95.726 6.97929C96.0314 6.97929 96.2021 7.00183 96.4522 7.05026V10.0409L96.3657 10.0293C96.0997 9.99354 95.8469 9.95951 95.5006 9.95951C94.103 9.95951 93.1332 10.7424 92.8893 11.9678C92.8324 12.2201 92.8157 12.4958 92.8157 12.8114V18.6601H89.5093V7.2369H92.4136V9.39136ZM70.268 7.59937C70.9336 7.20456 71.6718 6.97955 72.6046 6.97955C74.7153 6.97955 76.5824 8.38421 76.5824 11.9323V18.6601H73.3671V12.4016C73.3671 10.6027 72.7329 9.56189 71.4215 9.56189C70.4514 9.56189 69.7495 10.1863 69.4873 10.954C69.3959 11.2199 69.3531 11.5795 69.3531 11.8801V18.6601H66.1383V12.15C66.1383 10.6213 65.5279 9.56189 64.2288 9.56189C63.1914 9.56189 62.5387 10.3518 62.2765 11.0256C62.1614 11.315 62.1239 11.6467 62.1239 11.9603V18.6601H58.9027V7.2369H61.9593V8.78925H62.008C62.5513 7.95864 63.4538 6.97955 65.455 6.97955C67.0169 6.97955 68.2119 7.7919 68.7184 9.02182H68.767C69.2067 8.40263 69.7067 7.93084 70.268 7.59937ZM48.6387 15.1976C48.701 15.0074 48.7175 14.7904 48.7175 14.58L48.7178 13.1549C46.6746 13.1438 44.8865 13.5781 44.8865 15.1475C44.8865 16.1736 45.5883 16.6585 46.4729 16.6585C47.5406 16.6585 48.3885 15.9887 48.6387 15.1976ZM47.0797 6.97955C50.954 6.97955 52.1009 9.25667 52.1009 11.845V15.908C52.1009 16.9627 52.1495 17.8387 52.2896 18.6604C49.593 19.4164 49.0995 17.4411 49.0995 17.4411H49.0259C48.2881 18.3505 47.0555 18.9181 45.5788 18.9181C43.1842 18.9181 41.8055 17.25 41.8055 15.4696C41.8055 12.554 44.5115 11.1221 48.8 11.1304V10.9663C48.8 10.2754 48.4768 9.19812 46.5127 9.20229C45.3228 9.20229 44.0662 9.59932 43.2795 10.079L42.6496 7.99744C43.511 7.5178 45.091 6.97955 47.0797 6.97955ZM37.9508 10.0278L39.3734 3.45398H42.7368L38.5718 18.6601C35.9168 19.2213 34.9009 18.1912 34.5344 16.5564C34.1708 14.9209 33.458 11.8068 33.458 11.8068C33.4107 11.5851 33.3648 11.3719 33.3202 11.1648C33.0218 9.77993 32.7831 8.67195 32.6092 7.14887H32.559C32.2746 8.88273 31.977 10.0966 31.5338 11.8L29.7851 18.6601C27.0754 19.181 26.1362 18.409 25.6153 16.3127C25.168 14.5174 22.3684 3.45398 22.3684 3.45398H25.9109C26.2413 5.06493 27.181 9.73675 27.181 9.73675C27.5754 11.6571 27.9402 13.6724 28.2136 15.2643H28.2609C28.457 14.0208 28.7367 12.8249 29.049 11.49L29.049 11.4899L29.0491 11.4897C29.1615 11.0092 29.2781 10.5107 29.3966 9.9855L30.98 3.45398H34.4859L35.9656 10.1548L36.0488 10.5528C36.399 12.2282 36.6817 13.58 36.9064 15.1883H36.9537C37.1481 13.9211 37.3831 12.7868 37.6432 11.5311V11.531C37.7423 11.0523 37.8452 10.5559 37.9508 10.0278ZM57.048 18.6606H53.8454V3.45468H57.048V18.6606ZM113.124 16.4752H119.116V18.918H110.321V3.45398H113.124V16.4752ZM126.74 14.5028C126.74 14.717 126.724 14.9378 126.665 15.1314C126.429 15.9365 125.629 16.6182 124.628 16.6182C123.787 16.6182 123.125 16.1247 123.125 15.0804C123.125 13.4831 124.811 13.0411 126.74 13.0523L126.74 14.5028ZM129.932 11.7192C129.932 9.08497 128.85 6.76746 125.195 6.76746C123.319 6.76746 121.828 7.31528 121.016 7.80356L121.609 9.92183C122.351 9.43368 123.537 9.02963 124.659 9.02963C126.513 9.02545 126.818 10.1218 126.818 10.825V10.992C122.772 10.9837 120.216 12.4408 120.216 15.4081C120.216 17.2202 121.516 18.9179 123.785 18.9179C125.172 18.9179 126.34 18.3402 127.037 17.4147H127.106C127.106 17.4147 127.566 19.425 130.11 18.6555C129.978 17.8192 129.932 16.9276 129.932 15.8543V11.7192ZM135.586 14.654C135.906 15.7961 136.965 16.6581 138.27 16.6581H138.27C140.167 16.6581 141.324 15.2135 141.324 12.9302C141.324 10.9262 140.315 9.2953 138.295 9.2953C137.064 9.2953 135.956 10.1344 135.611 11.3924C135.562 11.6018 135.512 11.8587 135.512 12.138V13.9788C135.512 14.2116 135.537 14.4444 135.586 14.654ZM135.562 8.87627C136.3 7.78122 137.605 7.05876 139.403 7.0586C142.334 7.0586 144.427 9.36523 144.402 12.8135C144.402 16.8908 141.669 18.9179 138.959 18.9179C137.613 18.9179 136.398 18.4951 135.537 17.4708C135.411 17.8071 134.706 19.3051 132.308 18.628C132.428 17.9234 132.479 17.1713 132.491 16.3095C132.487 16.0805 132.483 15.8155 132.483 15.4698V3.45398H135.512V8.87627H135.562ZM149.893 11.7185C148.316 11.1925 147.732 10.8335 147.732 10.0919C147.732 9.37434 148.342 8.87222 149.461 8.87222C150.554 8.87222 151.545 9.25462 152.079 9.54217L152.689 7.46123C151.977 7.10262 150.783 6.76746 149.41 6.76746C146.538 6.76746 144.732 8.37011 144.732 10.4271C144.708 11.7904 145.724 13.0338 148.139 13.8233C149.664 14.3256 150.173 14.7318 150.173 15.5215C150.173 16.287 149.563 16.813 148.19 16.813C147.072 16.813 145.724 16.3824 145.012 15.9759L144.402 18.1045C145.317 18.5831 146.664 18.9177 148.164 18.9177C151.443 18.9177 153.198 17.3872 153.198 15.2825C153.173 13.5602 152.13 12.4838 149.893 11.7185Z" fill="#3D3D4E"></path>
</svg>